<svg width="80" height="80" viewBox="0 0 80 80" fill="none" xmlns="http://www.w3.org/2000/svg">
<path d="M39.9335 46.64C43.6301 46.64 46.6268 43.6433 46.6268 39.9466C46.6268 36.25 43.6301 33.2533 39.9335 33.2533C36.2369 33.2533 33.2402 36.25 33.2402 39.9466C33.2402 43.6433 36.2369 46.64 39.9335 46.64Z" fill="white"/>
<path d="M39.9333 55.28C30.5333 55.28 22.32 54.1734 16.1733 52.0667C12.1867 50.7067 8.80001 48.8934 6.38668 46.8267C3.82667 44.64 2.46667 42.2534 2.46667 39.9467C2.46667 35.52 7.32001 31.1867 15.4667 28.36C22.1333 26.04 30.8267 24.7467 39.92 24.7467C48.8533 24.7467 57.4267 26 64.0533 28.2934C67.9333 29.6267 71.2 31.36 73.52 33.28C76.04 35.3867 77.3733 37.6934 77.3733 39.9467C77.3733 44.5467 71.9467 49.2 63.2 52.0934C57.0133 54.1467 48.7467 55.28 39.9333 55.28ZM39.9333 27.9467C31.3067 27.9467 22.7733 29.2 16.5333 31.3734C9.04001 33.9867 5.68001 37.56 5.68001 39.9467C5.68001 42.4267 9.29334 46.3334 17.2133 49.04C23.0267 51.0267 30.8933 52.08 39.9333 52.08C48.4133 52.08 56.32 51.0134 62.2 49.0534C70.4267 46.32 74.1867 42.4134 74.1867 39.9467C74.1867 38.68 73.2267 37.1867 71.48 35.7334C69.4667 34.0534 66.5333 32.52 63.0267 31.3067C56.72 29.1467 48.52 27.9467 39.9333 27.9467Z" fill="white"/>
<path d="M24.7467 73.3067C23.3867 73.3067 22.1867 73.0134 21.1734 72.4267C17.3467 70.2134 16.0134 63.8401 17.6267 55.3734C18.9467 48.4267 22.1734 40.2667 26.7201 32.3867C31.1867 24.6534 36.5467 17.8534 41.8401 13.2534C44.9334 10.56 48.0667 8.58671 50.8934 7.54671C53.9734 6.41338 56.6401 6.41338 58.5867 7.53338C62.5734 9.82671 63.8934 16.8667 62.0267 25.8801C60.7067 32.2801 57.5601 40.0001 53.1601 47.6401C48.4667 55.7734 43.4001 62.3334 38.5067 66.6134C35.3334 69.3867 32.0667 71.4134 29.0801 72.4667C27.5201 73.0267 26.0534 73.3067 24.7467 73.3067ZM28.0934 33.1867L29.4801 33.9867C25.1734 41.4534 21.9867 49.4667 20.7601 55.9734C19.2801 63.7734 20.7067 68.4667 22.7601 69.6534C23.2667 69.9467 23.9334 70.1067 24.7467 70.1067C27.4001 70.1067 31.5734 68.4267 36.4001 64.2134C41.0267 60.1734 45.8667 53.8801 50.3867 46.0534C54.6267 38.7067 57.6401 31.3201 58.8934 25.2534C60.6401 16.76 59.1334 11.56 56.9867 10.32C55.8934 9.69338 54.1201 9.77338 51.9867 10.56C49.5201 11.4667 46.7334 13.24 43.9334 15.68C38.9067 20.0534 33.7734 26.5601 29.4801 34.0001L28.0934 33.1867Z" fill="white"/>
<path d="M55.1202 73.3467C51.4935 73.3467 46.8935 71.1601 42.0935 67.0267C36.7335 62.4134 31.2802 55.5467 26.7202 47.6667C22.2402 39.9334 19.0402 31.8934 17.6935 25C16.9069 20.9734 16.7602 17.28 17.2669 14.3067C17.8269 11.0667 19.1469 8.76004 21.1069 7.62671C25.0802 5.32004 31.8402 7.69338 38.7202 13.8134C43.6002 18.1467 48.7202 24.7334 53.1335 32.3601C57.8402 40.4934 61.0002 48.1601 62.2535 54.5334C63.0668 58.6667 63.2002 62.5067 62.6269 65.6267C62.0135 68.9467 60.6269 71.3067 58.6269 72.4667C57.6269 73.0534 56.4402 73.3467 55.1202 73.3467ZM29.4935 46.0667C33.8135 53.5334 39.1735 60.2934 44.1868 64.6001C50.2002 69.7734 54.9735 70.8934 57.0402 69.6934C59.1868 68.4534 60.7602 63.3734 59.1335 55.1601C57.9335 49.1334 54.9068 41.8001 50.3735 33.9734C46.1202 26.6267 41.2268 20.32 36.6002 16.2134C30.1202 10.4534 24.8668 9.16004 22.7202 10.4C21.6268 11.0267 20.8135 12.6134 20.4268 14.8534C19.9869 17.44 20.1202 20.7467 20.8402 24.3867C22.1202 30.9334 25.1868 38.6267 29.4935 46.0667Z" fill="white"/>
</svg>
